# xmcd
#
# Track frame offsets: 
#        150
#        15107
#        30760
#        45840
#        65350
#        84980
#        96052
#        118555
#        128655
#        142065
#
# Disc length: 2395 seconds
#
# Revision: 1
# Processed by: cddbd v1.4PL0 Copyright (c) Steve Scherf et al.
# Submitted via: ExactAudioCopy v0.95a3
#
DISCID=6709590a
DTITLE=Tuomari Nurmio - Luuta ja Nahkaa
DYEAR=1997
DGENRE=Pop
TTITLE0=Lahjoita luoja lohtusi nyt
TTITLE1=Rannanj‰rvi el‰‰!
TTITLE2=K‰‰rmeen laulu
TTITLE3=Suuri peto
TTITLE4=Luuta ja nahkaa
TTITLE5=Kaalimaan kansa
TTITLE6=Auringon lapsonen
TTITLE7=Kova luu
TTITLE8=Kuu kulkee hiljaa
TTITLE9=Laulaja
EXTD=
EXTT0=
EXTT1=
EXTT2=
EXTT3=
EXTT4=
EXTT5=
EXTT6=
EXTT7=
EXTT8=
EXTT9=
PLAYORDER=
